<svg width="10" height="16" viewBox="0 0 10 16" fill="none" xmlns="http://www.w3.org/2000/svg">
<path d="M9.64761 0.537842L7.41371 0.53241C4.90293 0.53241 3.27313 1.97196 3.27313 4.19918L3.27313 5.88861H1.02665C0.831572 5.88861 0.674255 6.02442 0.674255 6.19282L0.674255 8.64277C0.674255 8.81117 0.831572 8.94697 1.02665 8.94697H3.27942L3.27942 15.1234C3.27942 15.2918 3.43674 15.4277 3.63181 15.4277L6.5642 15.4277C6.75927 15.4277 6.91659 15.2918 6.91659 15.1234L6.91659 8.94154H9.54692C9.742 8.94154 9.89931 8.80573 9.89931 8.63733V6.18739C9.89931 6.1059 9.86156 6.02985 9.79863 5.9701C9.7357 5.91577 9.64131 5.88318 9.54692 5.88318L6.91659 5.88318V4.4545C6.91659 3.7646 7.10537 3.41694 8.14366 3.41694H9.64761C9.84268 3.41694 10 3.28113 10 3.11273V0.842048C10 0.673648 9.84268 0.537842 9.64761 0.537842Z" fill="white"/>
</svg>
