<svg width="17" height="16" viewBox="0 0 17 16" fill="none" xmlns="http://www.w3.org/2000/svg">
<path d="M11.7055 0.277771H4.73285C2.36497 0.277771 0.438538 2.17135 0.438538 4.49873V11.3522C0.438538 13.6796 2.36497 15.5731 4.73285 15.5731H11.7055C14.0736 15.5731 16 13.6795 16 11.3522V4.49873C16.0001 2.17135 14.0736 0.277771 11.7055 0.277771ZM14.6194 11.3522C14.6194 12.9313 13.3123 14.216 11.7056 14.216H4.73285C3.12628 14.2161 1.81923 12.9313 1.81923 11.3522V4.49873C1.81923 2.91964 3.12628 1.63485 4.73285 1.63485H11.7055C13.3122 1.63485 14.6193 2.91964 14.6193 4.49873V11.3522H14.6194Z" fill="white" stroke="white" stroke-width="0.25"/>
<path d="M8.21921 3.9845C6.00817 3.9845 4.20941 5.7525 4.20941 7.92572C4.20941 10.0989 6.00817 11.8668 8.21921 11.8668C10.4302 11.8668 12.229 10.0989 12.229 7.92572C12.229 5.7525 10.4302 3.9845 8.21921 3.9845ZM8.21921 10.5096C6.76958 10.5096 5.5901 9.35047 5.5901 7.92563C5.5901 6.5007 6.76948 5.34148 8.21921 5.34148C9.66893 5.34148 10.8483 6.5007 10.8483 7.92563C10.8483 9.35047 9.66884 10.5096 8.21921 10.5096Z" fill="white" stroke="white" stroke-width="0.25"/>
<path d="M12.395 2.83356C12.129 2.83356 11.8677 2.93941 11.6798 3.12488C11.491 3.30944 11.3825 3.56638 11.3825 3.82875C11.3825 4.0903 11.4911 4.34715 11.6798 4.53262C11.8676 4.71718 12.129 4.82394 12.395 4.82394C12.6619 4.82394 12.9224 4.71718 13.1111 4.53262C13.2998 4.34715 13.4075 4.09021 13.4075 3.82875C13.4075 3.56638 13.2998 3.30944 13.1111 3.12488C12.9234 2.93941 12.6619 2.83356 12.395 2.83356Z" fill="white" stroke="white" stroke-width="0.25"/>
</svg>
