<svg width="121" height="31" viewBox="0 0 121 31" fill="none" xmlns="http://www.w3.org/2000/svg">
<path d="M0.996824 29.9248C0.99716 29.8207 0.997441 29.7339 0.997777 29.6297C1.02917 19.9086 1.06057 10.1875 1.09191 0.483708C1.09314 0.101807 1.09314 0.101807 1.47499 0.120399C4.1824 0.320096 6.41444 2.58402 6.44041 5.29216C6.48027 9.07662 6.43333 12.8608 6.42116 16.6277C6.42083 16.7319 6.42049 16.8361 6.42027 16.9055C10.6347 12.7181 14.8492 8.53079 19.0637 4.34345C18.6124 4.34199 18.109 4.34036 17.6233 4.21728C15.8714 3.795 14.5916 2.29796 14.4412 0.509461C14.4246 0.266377 14.4423 0.144919 14.7548 0.145928C18.7994 0.17635 22.8268 0.189356 26.8715 0.18506C27.1145 0.185845 27.2012 0.220843 27.2003 0.49859C27.1699 4.54322 27.1569 8.57054 27.1612 12.6153C27.1603 12.893 27.108 12.9623 26.8129 12.944C24.9038 12.8163 23.1905 11.179 23.0232 9.25157C22.9895 8.92163 22.9906 8.59181 22.9742 8.29664C15.6772 15.5293 8.38032 22.7619 1.10075 29.9946C1.06609 29.9771 1.03149 29.9423 0.996824 29.9248Z" fill="url(#paint0_linear)"/>
<path d="M27.0527 30.0957C25.1084 30.0894 23.1988 30.1353 21.3068 30.0598C19.9704 30.0034 18.8266 29.4095 17.8749 28.4516C16.0408 26.5883 14.1893 24.7422 12.3552 22.8962C12.1995 22.7395 12.2171 22.6701 12.3564 22.5316C13.5058 21.3896 14.6725 20.2477 15.8219 19.1057C15.9264 19.0019 15.9961 18.9327 16.1519 19.072C19.7682 22.7118 23.3846 26.3516 27.0009 29.9914C27.0009 30.0087 27.0181 30.0435 27.0527 30.0957Z" fill="url(#paint1_linear)"/>
<path d="M44.3756 14.2632L49.2468 21.8393H46.0258L42.6856 16.4335L40.757 19.046V21.8393H37.9933V7.53112H40.757V15.5292L46.1053 7.53112H48.8889L44.3756 14.2632Z" fill="#0C1C32"/>
<path d="M58.8309 21.8393H57.1011L56.3058 20.4526L53.5422 21.9598C52.0046 21.9598 50.9707 21.3971 50.4405 20.2718C50.1754 19.7225 49.9898 19.133 49.8838 18.5034C49.791 17.8603 49.7446 17.1971 49.7446 16.5139C49.7446 15.8172 49.7512 15.3082 49.7645 14.9866C49.7778 14.6517 49.8109 14.2699 49.8639 13.8412C49.9169 13.3991 49.9898 13.0306 50.0826 12.7359C50.1887 12.4412 50.3345 12.1397 50.52 11.8316C50.7056 11.5101 50.9309 11.2555 51.196 11.068C51.7925 10.6527 52.5679 10.445 53.5223 10.445H56.2462L58.8309 10.2842V21.8393ZM56.2462 18.1818V12.7962H54.2778C53.5488 12.7962 53.0385 13.0775 52.7469 13.6402C52.4685 14.2029 52.3293 15.0469 52.3293 16.1723C52.3293 17.2842 52.4619 18.068 52.727 18.5235C53.0053 18.979 53.5223 19.2067 54.2778 19.2067L56.2462 18.1818Z" fill="#0C1C32"/>
<path d="M76.2714 21.8393H73.6867V14.7053C73.6867 13.9952 73.6005 13.4995 73.4282 13.2182C73.2692 12.9369 72.9842 12.7962 72.5733 12.7962L70.247 13.7809V21.8393H67.6623V14.7053C67.6623 13.4326 67.2249 12.7962 66.3501 12.7962L64.2226 13.7809V21.8393H61.6379V10.3646H63.5665L64.163 11.7311L67.1454 10.244C68.1793 10.244 68.9613 10.7531 69.4915 11.7713L73.1896 10.244C74.2235 10.244 74.9923 10.5991 75.496 11.3091C76.013 12.0058 76.2714 12.9503 76.2714 14.1426V21.8393Z" fill="#0C1C32"/>
<path d="M83.9058 21.8593L81.6591 21.8393C80.665 21.8393 79.9095 21.5445 79.3925 20.955C78.8888 20.3656 78.637 19.6622 78.637 18.845V6.72729H81.2217V11.7914L84.3035 10.3445C85.4832 10.3445 86.3514 10.666 86.9081 11.3091C87.3985 11.8852 87.7034 12.8163 87.8227 14.1024C87.8625 14.6383 87.8823 15.3015 87.8823 16.0919C87.8823 19.9369 86.5568 21.8593 83.9058 21.8593ZM81.8778 19.6086H83.1503C84.5818 19.6086 85.2976 18.4364 85.2976 16.0919C85.2976 14.8995 85.185 14.0689 84.9596 13.6C84.7475 13.1311 84.277 12.8967 83.548 12.8967L81.2217 14.1627V18.6842C81.2217 19.2201 81.4404 19.5282 81.8778 19.6086Z" fill="#0C1C32"/>
<path d="M92.7649 21.8393H90.1802V10.7866H92.7649V21.8393Z" fill="#0C1C32"/>
<path d="M103.45 18.6641V18.9656C103.37 19.9704 102.946 20.7273 102.177 21.2364C101.422 21.7455 100.474 22 99.3339 22C97.6505 22 96.4708 21.6919 95.7948 21.0756C95.1718 20.5129 94.8603 19.6823 94.8603 18.5837V18.3426H97.2065C97.2065 18.9589 97.3655 19.3809 97.6836 19.6086C98.0018 19.8364 98.5518 19.9503 99.3339 19.9503C100.394 19.9503 100.924 19.5617 100.924 18.7847C100.924 18.1416 100.739 17.7129 100.368 17.4986C100.195 17.3914 99.9767 17.311 99.7116 17.2574L97.7035 16.9158C95.9539 16.6345 95.079 15.5292 95.079 13.6C95.079 12.5282 95.4634 11.6976 96.2322 11.1082C97.0143 10.5053 98.0018 10.2038 99.1947 10.2038C101.912 10.2038 103.271 11.3895 103.271 13.7608V14.022H101.024C100.997 13.3924 100.832 12.9637 100.527 12.7359C100.222 12.5082 99.7912 12.3943 99.2345 12.3943C98.691 12.3943 98.2801 12.5082 98.0018 12.7359C97.7234 12.9503 97.5842 13.1914 97.5842 13.4593C97.5842 14.223 97.8891 14.6584 98.4988 14.7656L100.905 15.2077C102.601 15.5292 103.45 16.6814 103.45 18.6641Z" fill="#0C1C32"/>
<path d="M110.468 21.8393H108.857C107.876 21.8393 107.127 21.5445 106.61 20.955C106.107 20.3656 105.855 19.6622 105.855 18.845V12.8163H104.761V10.8268H105.855V8.5761H108.44V10.8268H110.269V12.8163H108.44V18.6842C108.44 19.3139 108.738 19.6287 109.334 19.6287H110.468V21.8393Z" fill="#0C1C32"/>
<path d="M120.42 21.8393H118.69L117.895 20.4526L115.131 21.9598C113.594 21.9598 112.56 21.3971 112.03 20.2718C111.765 19.7225 111.579 19.133 111.473 18.5034C111.38 17.8603 111.334 17.1971 111.334 16.5139C111.334 15.8172 111.34 15.3082 111.354 14.9866C111.367 14.6517 111.4 14.2699 111.453 13.8412C111.506 13.3991 111.579 13.0306 111.672 12.7359C111.778 12.4412 111.924 12.1397 112.109 11.8316C112.295 11.5101 112.52 11.2555 112.785 11.068C113.382 10.6527 114.157 10.445 115.111 10.445H117.835L120.42 10.2842V21.8393ZM117.835 18.1818V12.7962H115.867C115.138 12.7962 114.628 13.0775 114.336 13.6402C114.058 14.2029 113.918 15.0469 113.918 16.1723C113.918 17.2842 114.051 18.068 114.316 18.5235C114.594 18.979 115.111 19.2067 115.867 19.2067L117.835 18.1818Z" fill="#0C1C32"/>
<path d="M92.6693 6.28898C92.4857 6.09633 92.0857 6 91.4694 6C90.853 6 90.4465 6.09633 90.2498 6.28898C90.0662 6.46879 89.9744 6.8541 89.9744 7.44491C89.9744 8.03572 90.0662 8.42745 90.2498 8.62011C90.4465 8.81276 90.8464 8.90909 91.4497 8.90909C92.0661 8.90909 92.466 8.81918 92.6496 8.63937C92.8463 8.44672 92.9447 8.05499 92.9447 7.46418C92.9447 6.86052 92.8529 6.46879 92.6693 6.28898Z" fill="url(#paint2_linear)"/>
<defs>
<linearGradient id="paint0_linear" x1="14.1472" y1="0.143966" x2="14.0507" y2="30.0364" gradientUnits="userSpaceOnUse">
<stop stop-color="#00DFC4"/>
<stop offset="0.740331" stop-color="#00B5FF"/>
</linearGradient>
<linearGradient id="paint1_linear" x1="19.6727" y1="19.0056" x2="19.6369" y2="30.0905" gradientUnits="userSpaceOnUse">
<stop stop-color="#00DFC4"/>
<stop offset="0.740331" stop-color="#00B5FF"/>
</linearGradient>
<linearGradient id="paint2_linear" x1="91.4595" y1="6" x2="91.4595" y2="8.90909" gradientUnits="userSpaceOnUse">
<stop stop-color="#00DFC4"/>
<stop offset="0.740331" stop-color="#00B5FF"/>
</linearGradient>
</defs>
</svg>
