<svg width="114" height="35" viewBox="0 0 114 35" fill="none" xmlns="http://www.w3.org/2000/svg">
<path d="M103.158 12.8367C103.891 10.7455 104.642 8.66246 105.338 6.55881C105.511 6.03651 105.763 5.86516 106.288 5.88374C107.215 5.91884 108.146 5.91884 109.073 5.88994C110.14 5.85484 110.751 6.39779 111.001 7.37013C111.886 10.8239 112.743 14.286 113.631 17.7377C113.761 18.2476 113.649 18.454 113.117 18.3921C113.049 18.3838 112.979 18.3942 112.91 18.3942C110.417 18.4499 110.414 18.452 109.783 16.0531C109.232 13.9598 108.687 11.8644 108.137 9.77106C108.069 9.513 108.065 9.22605 107.793 9.02167C107.029 11.1212 106.248 13.2001 105.526 15.2996C105.309 15.9292 104.985 16.1254 104.333 16.115C99.921 16.0552 100.887 16.5651 99.5329 12.6943C99.2377 11.852 98.9838 10.9953 98.67 10.1612C98.5874 9.94034 98.6142 9.53158 98.2406 9.56255C97.9247 9.58732 97.8834 9.94034 97.8215 10.1839C97.4623 11.6146 97.132 13.0535 96.779 14.4841C96.5085 15.5845 96.1823 16.6724 95.9532 17.7831C95.8417 18.3281 95.4784 18.4664 95.0572 18.6006C94.9623 18.6295 94.8529 18.6027 94.7496 18.6068C92.3157 18.7224 92.2723 18.6687 92.8648 16.3731C93.6906 13.1815 94.5267 9.99195 95.3256 6.79209C95.4908 6.13354 95.7302 5.7991 96.4858 5.86929C97.3735 5.94981 98.2736 5.92503 99.1675 5.88168C100.255 5.83007 100.887 6.26153 101.199 7.33916C101.727 9.17237 102.355 10.9767 102.941 12.7934C103.016 12.812 103.088 12.8243 103.158 12.8367Z" fill="#041082"/>
<path d="M59.5883 18.3921C58.3847 18.3921 57.2947 18.3673 56.2068 18.4024C55.6597 18.421 55.6163 18.0081 55.4987 17.684C55.0837 16.53 54.4602 15.9045 53.0626 16.0676C51.5701 16.241 50.0403 16.1295 48.5292 16.0882C47.9718 16.0738 47.5836 16.21 47.4453 16.7633C47.1109 18.1052 46.312 18.6564 44.9164 18.4169C44.3157 18.3137 43.6839 18.4004 42.9779 18.4004C43.1658 17.4817 43.6922 16.7633 44.0741 15.9891C45.6679 12.7583 47.2905 9.53986 48.8739 6.30491C49.0143 6.01795 49.1196 5.85486 49.4416 5.89615C49.5098 5.90441 49.5799 5.89409 49.6481 5.89409C54.0453 5.94157 52.9346 5.29747 54.8876 9.04234C56.3451 11.8376 57.7447 14.6617 59.1692 17.4734C59.3075 17.7377 59.419 18.0164 59.5883 18.3921ZM53.4817 13.487C52.722 11.8396 52.0098 10.2913 51.2377 8.61707C50.4511 10.2769 49.7141 11.8334 48.9296 13.487C50.4883 13.487 51.9127 13.487 53.4817 13.487Z" fill="#041082"/>
<path d="M90.7302 18.2992C89.4833 18.8421 88.3149 18.3157 87.1608 18.324C86.7067 18.3281 86.4755 17.4693 86.3 16.9346C86.0853 16.2802 85.7157 16.0593 85.0221 16.0799C83.2364 16.1336 81.4486 16.1027 79.6608 16.1027C79.2458 16.1027 78.8102 16.049 78.6884 16.6022C78.3148 18.2971 77.1628 18.646 75.6331 18.4127C75.1624 18.3405 74.6731 18.4024 74.188 18.4024C74.0435 17.9957 74.3284 17.7315 74.4708 17.4466C76.2545 13.8524 78.067 10.2706 79.8363 6.67029C80.115 6.10257 80.4349 5.86723 81.0832 5.87961C85.1026 5.95806 84.1323 5.39034 85.8871 8.74917C87.5221 11.8768 89.0849 15.0457 90.7302 18.2992ZM82.3714 8.60259C81.6241 10.1984 80.9676 11.6125 80.2987 13.0184C80.0819 13.4705 80.2904 13.5345 80.6806 13.5324C81.8078 13.5242 82.935 13.5263 84.0621 13.5428C84.4977 13.549 84.603 13.423 84.409 13.0101C83.7463 11.6105 83.1063 10.1984 82.3714 8.60259Z" fill="#041082"/>
<path d="M66.8221 5.88784C69.0888 5.88784 71.3576 5.91261 73.6243 5.87338C74.3221 5.861 74.5698 6.04267 74.5533 6.77967C74.5162 8.43327 74.5554 8.42914 72.9307 8.51378C71.7643 8.57572 70.6 8.69958 69.4356 8.71403C68.7337 8.72229 68.4984 8.9308 68.5128 9.6616C68.5582 12.271 68.5066 14.8825 68.55 17.494C68.5624 18.2021 68.3869 18.4251 67.6499 18.4189C65.0549 18.3983 65.0549 18.4272 65.0549 15.7909C65.0549 13.7987 65.0116 11.8045 65.0776 9.81437C65.1065 8.94318 64.8051 8.7161 63.9814 8.70784C62.6106 8.69339 61.2399 8.52204 59.8691 8.47869C59.1981 8.45804 59 8.20825 59.0247 7.55176C59.0949 5.56991 58.8018 5.92293 60.6453 5.89403C62.7056 5.861 64.768 5.88577 66.8283 5.88577C66.8221 5.88371 66.8221 5.88577 66.8221 5.88784Z" fill="#041082"/>
<path d="M4.98218 12.2597C5.91943 11.9892 6.86494 11.7415 7.67213 11.1552C9.70765 10.8166 11.5718 9.9764 13.4505 9.17747C14.4971 8.81207 15.5438 8.44873 16.5904 8.08333C17.8518 7.65186 19.1235 7.23897 20.3745 6.77654C20.8019 6.61758 21.3221 6.50817 21.4625 5.94458C22.1334 7.16672 21.9373 8.46937 21.5946 9.68326C21.3283 10.6246 20.2321 10.5462 19.4517 10.8228C17.6619 11.5144 15.8741 12.206 14.0842 12.8976C11.3571 13.8617 8.62176 14.8092 5.90704 15.8063C5.35171 16.0107 4.8707 16.0458 4.32569 15.8373C3.23774 15.4182 2.13533 15.0384 1.03912 14.6358C0.653077 14.4934 0.233998 14.3757 0.231934 13.8389C1.93921 13.6903 3.42147 12.8542 4.98218 12.2597Z" fill="#041082"/>
<path d="M41.6402 15.504C41.1839 16.4392 40.7917 17.1968 40.4448 17.9772C40.29 18.324 40.065 18.4045 39.7202 18.4024C36.5906 18.3942 33.4609 18.39 30.3312 18.4086C29.8378 18.4128 29.6789 18.262 29.6809 17.7687C29.6974 14.0197 29.6974 10.2707 29.6809 6.52166C29.6789 6.01381 29.8688 5.90439 30.3415 5.87756C33.2689 5.70827 33.2668 5.69589 33.2668 8.6026C33.2668 10.5638 33.2999 12.525 33.2483 14.4841C33.2276 15.2604 33.3886 15.5515 34.2474 15.5267C36.6525 15.4606 39.0576 15.504 41.6402 15.504Z" fill="#041082"/>
<path d="M21.5905 12.1782C22.0096 13.3838 21.8382 14.6039 21.6751 15.8219C21.6049 16.3484 21.1755 16.528 20.7503 16.6828C15.8576 18.4644 10.9607 20.2357 6.07425 22.0317C5.46112 22.2567 5.24848 22.2093 5.23403 21.4785C5.17623 18.4788 5.15352 18.4809 7.99623 17.457C10.3517 16.6105 12.7073 15.7662 15.0566 14.9053C15.5252 14.734 16.0516 14.6266 16.3138 14.1147C17.1354 14.383 17.827 13.9454 18.5227 13.6584C19.5735 13.227 20.7957 13.1382 21.5905 12.1782Z" fill="#041082"/>
<path d="M51.9438 34.6679C50.7443 35.1201 50.2468 34.3459 50.0321 33.5903C49.6357 32.1989 48.8079 31.8706 47.4743 31.9883C46.1097 32.1101 44.7245 32.0441 43.3496 32.009C42.7818 31.9945 42.4701 32.1906 42.2843 32.7233C42.1377 33.1403 41.8466 33.5077 41.7083 33.9268C41.4379 34.7443 40.9073 34.9508 40.1043 34.7216C40.0692 34.2117 40.4366 33.8566 40.6431 33.4499C42.0531 30.7001 43.4858 27.9627 44.9041 25.2191C45.0981 24.8454 45.2385 24.513 45.7938 24.544C46.3161 24.575 46.7228 24.6493 46.985 25.1551C48.6304 28.3219 50.284 31.4825 51.9438 34.6679ZM45.9631 25.6092C45.0279 27.4404 44.1795 29.0981 43.2979 30.826C45.1146 30.826 46.8033 30.826 48.6386 30.826C47.7344 29.063 46.8859 27.4115 45.9631 25.6092Z" fill="#041082"/>
<path d="M30.897 31.0203C30.897 32.0731 30.8784 33.0661 30.9052 34.057C30.9197 34.5484 30.8474 34.8126 30.2467 34.8002C29.6934 34.7899 29.6542 34.5319 29.6542 34.1025C29.65 31.045 29.6542 27.9856 29.5964 24.9281C29.5881 24.443 29.873 24.6267 30.0154 24.6205C32.1418 24.5276 34.2785 24.4224 36.3945 24.6556C38.1059 24.8456 39.2063 25.9954 39.3632 27.4736C39.5366 29.1065 38.6282 30.5207 36.9395 31.1152C35.2756 31.7015 33.5704 31.6995 31.8631 31.2928C31.5658 31.2226 31.2747 31.1276 30.897 31.0203ZM33.5766 25.7209C32.726 25.7209 31.5968 25.3885 31.0972 25.8076C30.5027 26.3072 30.9775 27.4736 30.9114 28.3489C30.8846 28.6895 30.9114 29.0343 30.9011 29.377C30.8928 29.6412 30.9527 29.8456 31.2335 29.9364C33.1802 30.5743 35.1352 30.7746 37.02 29.7961C37.8334 29.3749 38.2422 28.6069 38.139 27.6511C38.0337 26.6788 37.4267 26.1441 36.539 25.8571C35.5667 25.5392 34.5654 25.7064 33.5766 25.7209Z" fill="#041082"/>
<path d="M59.1878 24.3871C59.9125 24.3376 60.7568 24.4903 61.597 24.6741C62.1007 24.7835 62.7015 24.897 62.4785 25.6134C62.2824 26.2472 61.758 25.9169 61.3637 25.8198C59.9806 25.4833 58.5953 25.3285 57.1833 25.6444C56.7374 25.7435 56.3286 25.9148 55.9797 26.1976C55.1725 26.8521 55.2758 27.8781 56.1924 28.3901C57.0842 28.8876 58.0937 28.9413 59.066 29.1188C59.9826 29.286 60.8745 29.5048 61.6941 29.9631C63.2341 30.8219 63.424 32.7666 62.0801 33.9206C61.5454 34.379 60.9178 34.6473 60.2345 34.7794C58.2712 35.1552 56.3472 35.0231 54.4562 34.3459C53.9772 34.1746 53.8245 34.0115 54.0082 33.4644C54.227 32.81 54.5449 33.1444 54.867 33.2559C56.5495 33.8422 58.265 34.0796 60.0281 33.6998C60.6453 33.5656 61.211 33.3178 61.5475 32.7398C61.9769 32.0028 61.7002 31.2555 60.8064 30.8034C59.8092 30.2996 58.6965 30.215 57.6209 30.0148C56.9087 29.8826 56.213 29.7195 55.5668 29.3851C53.8823 28.5139 53.713 26.4805 55.2303 25.345C56.1676 24.6411 57.2184 24.3768 59.1878 24.3871Z" fill="#041082"/>
<path d="M5.25264 26.5527C5.25057 24.7174 5.25057 24.7153 6.97231 24.0857C8.83442 23.4044 10.7089 22.7521 12.5607 22.046C13.3679 21.7384 13.6755 21.8953 13.6631 22.8037C13.6198 26.0201 13.8448 25.4069 11.2642 26.3607C9.50123 27.013 7.72582 27.6344 5.97519 28.3178C5.34347 28.5655 5.18658 28.4107 5.24438 27.7851C5.28154 27.3784 5.25264 26.9635 5.25264 26.5527Z" fill="#041082"/>
<path d="M69.737 34.9758C68.488 34.984 67.2824 34.7652 66.1057 34.3461C65.6618 34.1871 65.4038 34.0488 65.6206 33.477C65.8435 32.8824 66.1201 33.1364 66.4814 33.254C68.0958 33.7866 69.7391 34.0695 71.4443 33.733C71.8551 33.6525 72.2453 33.5369 72.5942 33.3118C73.6347 32.6368 73.5975 31.4559 72.5054 30.8531C71.4897 30.2916 70.3398 30.2214 69.2312 30.017C68.4819 29.8787 67.751 29.6867 67.0842 29.3275C65.5855 28.5182 65.3687 26.6912 66.6135 25.5289C67.3237 24.8663 68.2094 24.5876 69.1363 24.4637C70.5772 24.2696 72.0182 24.3522 73.4262 24.7279C73.7255 24.8085 74.2395 24.7548 74.0372 25.4051C73.8576 25.9811 73.5624 26.0038 73.0628 25.8531C71.6962 25.4443 70.3006 25.3204 68.8927 25.6363C68.5603 25.7106 68.1908 25.7643 67.9265 25.9501C67.4641 26.2763 66.9604 26.6169 67.0512 27.3312C67.1379 27.998 67.5591 28.3407 68.1371 28.5616C69.0103 28.896 69.9393 28.9683 70.8456 29.1479C71.6879 29.3151 72.524 29.503 73.2816 29.9344C74.8816 30.8448 75.0529 32.7668 73.6409 33.9539C72.7903 34.6661 71.5888 34.9819 69.737 34.9758Z" fill="#041082"/>
<path d="M5.25061 32.7895C5.25268 30.9604 5.25268 30.9604 6.99918 30.3328C8.8902 29.6536 8.8902 29.6536 8.89639 31.6252C8.90258 33.4584 8.90258 33.4584 6.95996 34.1768C5.24648 34.8085 5.24648 34.8085 5.24855 32.996C5.25061 32.9278 5.25061 32.8597 5.25061 32.7895Z" fill="#041082"/>
<path d="M21.4625 5.94556C21.3221 6.50915 20.8019 6.61857 20.3746 6.77753C19.1235 7.23996 17.8518 7.65284 16.5905 8.08431C14.5405 6.94681 12.2799 6.35019 10.0978 5.54713C8.87571 5.09708 7.63292 4.69039 6.43968 4.17222C5.36412 3.70566 4.67873 1.21803 5.28567 0.249812C5.54579 -0.167202 5.86371 0.037176 6.18782 0.156913C9.8625 1.50292 13.5372 2.84892 17.2139 4.18667C18.657 4.71104 20.1661 5.07025 21.4625 5.94556Z" fill="#D20253"/>
<path d="M13.4505 9.17837C11.5719 9.97524 9.7077 10.8155 7.67218 11.1561C6.15689 10.0248 4.3051 9.67589 2.59162 9.02766C-0.0136826 8.04087 0.22992 7.76424 0.0668301 5.33441C0.013155 4.53547 0.421911 4.296 1.17336 4.57057C2.94051 5.21673 4.71385 5.84845 6.48513 6.48223C8.48143 7.19652 10.4819 7.90049 12.472 8.62923C12.8188 8.75722 13.1264 8.99257 13.4505 9.17837Z" fill="#D20253"/>
<path d="M21.5905 12.178C20.7957 13.138 19.5735 13.2267 18.5248 13.6582C17.8291 13.9431 17.1375 14.3828 16.3159 14.1144C15.616 13.6293 14.6912 13.555 14.0842 12.8985C15.8741 12.2069 17.6639 11.5153 19.4517 10.8237C19.5715 11.3956 20.0669 11.4554 20.5025 11.6041C20.8948 11.7383 21.3882 11.6825 21.5905 12.178Z" fill="#D20253"/>
<path d="M4.98226 12.2586C3.42155 12.8531 1.93929 13.6892 0.229947 13.842C-0.234549 12.8882 0.149434 11.9035 0.145305 10.9353C0.143241 10.6752 0.428132 10.5162 0.688249 10.607C2.13748 11.1108 3.66102 11.4246 4.98226 12.2586Z" fill="#D20253"/>
</svg>
