<svg width="114" height="36" viewBox="0 0 114 36" fill="none" xmlns="http://www.w3.org/2000/svg">
<g clip-path="url(#clip0)">
<path d="M103.157 13.4104C103.89 11.3191 104.642 9.23613 105.337 7.13248C105.511 6.61018 105.763 6.43883 106.287 6.45741C107.214 6.49251 108.145 6.49251 109.072 6.46361C110.139 6.42851 110.75 6.97146 111 7.9438C111.886 11.3976 112.742 14.8596 113.63 18.3113C113.76 18.8213 113.649 19.0277 113.116 18.9658C113.048 18.9575 112.978 18.9678 112.91 18.9678C110.416 19.0236 110.414 19.0256 109.782 16.6268C109.231 14.5334 108.686 12.4381 108.137 10.3447C108.069 10.0867 108.064 9.79972 107.792 9.59534C107.028 11.6949 106.248 13.7737 105.525 15.8733C105.308 16.5029 104.984 16.699 104.332 16.6887C99.9203 16.6288 100.886 17.1388 99.5322 13.268C99.237 12.4257 98.983 11.5689 98.6692 10.7349C98.5867 10.514 98.6135 10.1053 98.2398 10.1362C97.924 10.161 97.8827 10.514 97.8208 10.7576C97.4616 12.1883 97.1312 13.6272 96.7782 15.0578C96.5078 16.1581 96.1816 17.2461 95.9525 18.3568C95.841 18.9018 95.4776 19.0401 95.0565 19.1743C94.9615 19.2032 94.8521 19.1763 94.7489 19.1805C92.3149 19.2961 92.2716 19.2424 92.8641 16.9468C93.6898 13.7552 94.5259 10.5656 95.3249 7.36576C95.49 6.70721 95.7295 6.37277 96.4851 6.44296C97.3728 6.52347 98.2729 6.4987 99.1668 6.45535C100.255 6.40374 100.886 6.8352 101.198 7.91283C101.727 9.74604 102.354 11.5504 102.941 13.367C103.015 13.3856 103.087 13.398 103.157 13.4104Z" fill="white"/>
<path d="M59.5876 18.9658C58.3841 18.9658 57.294 18.941 56.2061 18.9761C55.659 18.9947 55.6157 18.5818 55.498 18.2577C55.083 17.1037 54.4596 16.4782 53.062 16.6412C51.5694 16.8147 50.0396 16.7032 48.5285 16.6619C47.9711 16.6474 47.583 16.7837 47.4447 17.337C47.1102 18.6788 46.3113 19.23 44.9157 18.9906C44.315 18.8873 43.6833 18.974 42.9772 18.974C43.1651 18.0554 43.6915 17.337 44.0734 16.5628C45.6672 13.332 47.2898 10.1135 48.8732 6.87858C49.0136 6.59162 49.1189 6.42853 49.441 6.46982C49.5091 6.47808 49.5793 6.46776 49.6474 6.46776C54.0446 6.51524 52.934 5.87114 54.8869 9.61601C56.3444 12.4112 57.7441 15.2354 59.1685 18.0471C59.3068 18.3114 59.4183 18.5901 59.5876 18.9658ZM53.481 14.0607C52.7213 12.4133 52.0091 10.865 51.237 9.19074C50.4505 10.8505 49.7135 12.4071 48.929 14.0607C50.4876 14.0607 51.9121 14.0607 53.481 14.0607Z" fill="white"/>
<path d="M90.7294 18.8729C89.4825 19.4158 88.3141 18.8894 87.1601 18.8976C86.7059 18.9018 86.4747 18.043 86.2992 17.5083C86.0845 16.8539 85.715 16.633 85.0213 16.6536C83.2356 16.7073 81.4478 16.6763 79.66 16.6763C79.245 16.6763 78.8094 16.6226 78.6876 17.1759C78.314 18.8708 77.162 19.2197 75.6323 18.9864C75.1616 18.9142 74.6723 18.9761 74.1872 18.9761C74.0427 18.5694 74.3276 18.3052 74.47 18.0203C76.2537 14.4261 78.0663 10.8443 79.8355 7.24396C80.1142 6.67624 80.4342 6.4409 81.0824 6.45328C85.1018 6.53173 84.1315 5.96401 85.8863 9.32284C87.5213 12.4504 89.0841 15.6193 90.7294 18.8729ZM82.3706 9.17626C81.6233 10.7721 80.9668 12.1862 80.2979 13.5921C80.0811 14.0442 80.2896 14.1082 80.6798 14.1061C81.807 14.0979 82.9342 14.0999 84.0613 14.1164C84.4969 14.1226 84.6022 13.9967 84.4082 13.5838C83.7455 12.1841 83.1055 10.7721 82.3706 9.17626Z" fill="white"/>
<path d="M66.8213 6.4615C69.0881 6.4615 71.3569 6.48628 73.6236 6.44705C74.3214 6.43467 74.5691 6.61634 74.5526 7.35334C74.5154 9.00694 74.5547 9.00281 72.93 9.08745C71.7636 9.14939 70.5992 9.27325 69.4349 9.2877C68.733 9.29596 68.4976 9.50447 68.5121 10.2353C68.5575 12.8447 68.5059 15.4562 68.5492 18.0677C68.5616 18.7758 68.3862 18.9988 67.6492 18.9926C65.0542 18.9719 65.0542 19.0008 65.0542 16.3646C65.0542 14.3724 65.0108 12.3781 65.0769 10.388C65.1058 9.51685 64.8044 9.28977 63.9807 9.28151C62.6099 9.26706 61.2391 9.09571 59.8683 9.05236C59.1974 9.03171 58.9992 8.78192 59.024 8.12543C59.0942 6.14358 58.801 6.4966 60.6446 6.4677C62.7049 6.43467 64.7672 6.45944 66.8275 6.45944C66.8213 6.45738 66.8213 6.45944 66.8213 6.4615Z" fill="white"/>
<path d="M4.98145 12.8332C5.91869 12.5628 6.8642 12.315 7.67139 11.7287C9.70692 11.3902 11.5711 10.55 13.4497 9.75102C14.4964 9.38561 15.543 9.02228 16.5897 8.65687C17.8511 8.22541 19.1228 7.81252 20.3738 7.35009C20.8011 7.19113 21.3214 7.08172 21.4618 6.51813C22.1327 7.74027 21.9366 9.04292 21.5939 10.2568C21.3276 11.1982 20.2314 11.1197 19.451 11.3964C17.6612 12.0879 15.8734 12.7795 14.0835 13.4711C11.3564 14.4352 8.62103 15.3828 5.90631 16.3799C5.35098 16.5843 4.86997 16.6194 4.32496 16.4109C3.23701 15.9918 2.1346 15.6119 1.03839 15.2094C0.652344 15.0669 0.233266 14.9492 0.231201 14.4125C1.93848 14.2639 3.42074 13.4278 4.98145 12.8332Z" fill="white"/>
<path d="M41.6395 16.0776C41.1832 17.0128 40.791 17.7705 40.4442 18.5508C40.2893 18.8977 40.0643 18.9782 39.7196 18.9761C36.5899 18.9678 33.4602 18.9637 30.3305 18.9823C29.8372 18.9864 29.6782 18.8357 29.6803 18.3423C29.6968 14.5933 29.6968 10.8443 29.6803 7.09533C29.6782 6.58748 29.8681 6.47806 30.3409 6.45123C33.2682 6.28194 33.2662 6.26956 33.2662 9.17627C33.2662 11.1375 33.2992 13.0987 33.2476 15.0578C33.2269 15.834 33.388 16.1251 34.2468 16.1004C36.6518 16.0343 39.0569 16.0776 41.6395 16.0776Z" fill="white"/>
<path d="M21.5897 12.7518C22.0088 13.9575 21.8375 15.1775 21.6744 16.3955C21.6042 16.922 21.1748 17.1016 20.7495 17.2564C15.8568 19.038 10.96 20.8093 6.07352 22.6053C5.46038 22.8304 5.24775 22.7829 5.2333 22.0521C5.17549 19.0525 5.15278 19.0545 7.9955 18.0306C10.351 17.1842 12.7065 16.3398 15.0558 15.4789C15.5245 15.3076 16.0509 15.2002 16.3131 14.6883C17.1347 14.9566 17.8263 14.519 18.522 14.232C19.5728 13.8006 20.7949 13.7118 21.5897 12.7518Z" fill="white"/>
<path d="M51.943 35.2417C50.7436 35.6938 50.2461 34.9196 50.0314 34.164C49.635 32.7726 48.8072 32.4444 47.4735 32.562C46.109 32.6838 44.7237 32.6178 43.3488 32.5827C42.7811 32.5682 42.4694 32.7644 42.2836 33.297C42.137 33.714 41.8459 34.0815 41.7076 34.5005C41.4372 35.3181 40.9066 35.5245 40.1035 35.2953C40.0684 34.7854 40.4359 34.4304 40.6424 34.0237C42.0524 31.2738 43.4851 28.5364 44.9033 25.7928C45.0974 25.4191 45.2378 25.0868 45.7931 25.1177C46.3154 25.1487 46.7221 25.223 46.9843 25.7288C48.6296 28.8956 50.2832 32.0563 51.943 35.2417ZM45.9624 26.183C45.0272 28.0141 44.1787 29.6719 43.2972 31.3998C45.1139 31.3998 46.8026 31.3998 48.6379 31.3998C47.7337 29.6368 46.8852 27.9852 45.9624 26.183Z" fill="white"/>
<path d="M30.8962 31.5939C30.8962 32.6467 30.8776 33.6397 30.9044 34.6306C30.9189 35.122 30.8466 35.3862 30.2459 35.3738C29.6926 35.3635 29.6534 35.1055 29.6534 34.6761C29.6493 31.6186 29.6534 28.5592 29.5956 25.5017C29.5873 25.0166 29.8722 25.2003 30.0147 25.1941C32.141 25.1012 34.2777 24.996 36.3938 25.2292C38.1052 25.4192 39.2055 26.5691 39.3624 28.0472C39.5358 29.6801 38.6275 31.0943 36.9388 31.6888C35.2748 32.2751 33.5696 32.2731 31.8623 31.8664C31.5651 31.7962 31.274 31.7012 30.8962 31.5939ZM33.5758 26.2945C32.7253 26.2945 31.596 25.9621 31.0964 26.3812C30.5019 26.8808 30.9767 28.0472 30.9106 28.9225C30.8838 29.2631 30.9106 29.6079 30.9003 29.9506C30.8921 30.2148 30.9519 30.4192 31.2327 30.51C33.1794 31.148 35.1345 31.3482 37.0193 30.3697C37.8327 29.9485 38.2414 29.1806 38.1382 28.2247C38.0329 27.2524 37.426 26.7177 36.5383 26.4307C35.5659 26.1128 34.5647 26.28 33.5758 26.2945Z" fill="white"/>
<path d="M59.1871 24.9609C59.9117 24.9113 60.7561 25.0641 61.5963 25.2478C62.1 25.3572 62.7008 25.4708 62.4778 26.1871C62.2817 26.8209 61.7573 26.4906 61.363 26.3936C59.9798 26.0571 58.5946 25.9022 57.1825 26.2181C56.7366 26.3172 56.3279 26.4885 55.979 26.7714C55.1718 27.4258 55.275 28.4518 56.1916 28.9638C57.0835 29.4613 58.093 29.515 59.0653 29.6925C59.9819 29.8597 60.8737 30.0786 61.6933 30.5369C63.2334 31.3957 63.4233 33.3404 62.0794 34.4944C61.5447 34.9527 60.9171 35.2211 60.2338 35.3532C58.2705 35.7289 56.3465 35.5968 54.4554 34.9196C53.9765 34.7483 53.8237 34.5852 54.0075 34.0381C54.2263 33.3837 54.5442 33.7182 54.8663 33.8296C56.5488 34.4159 58.2643 34.6533 60.0273 34.2735C60.6446 34.1393 61.2102 33.8916 61.5467 33.3135C61.9761 32.5765 61.6995 31.8292 60.8056 31.3771C59.8085 30.8734 58.6958 30.7887 57.6202 30.5885C56.908 30.4564 56.2123 30.2933 55.5661 29.9588C53.8815 29.0876 53.7122 27.0542 55.2296 25.9188C56.1669 25.2148 57.2176 24.9505 59.1871 24.9609Z" fill="white"/>
<path d="M5.25191 27.1264C5.24984 25.2911 5.24984 25.2891 6.97157 24.6594C8.83369 23.9782 10.7082 23.3258 12.56 22.6198C13.3672 22.3122 13.6748 22.4691 13.6624 23.3774C13.619 26.5938 13.844 25.9807 11.2635 26.9344C9.5005 27.5868 7.72509 28.2082 5.97446 28.8915C5.34274 29.1392 5.18584 28.9844 5.24365 28.3589C5.28081 27.9522 5.25191 27.5372 5.25191 27.1264Z" fill="white"/>
<path d="M69.7363 35.5494C68.4873 35.5576 67.2817 35.3388 66.105 34.9197C65.6611 34.7608 65.4031 34.6224 65.6198 34.0506C65.8428 33.456 66.1194 33.71 66.4807 33.8276C68.0951 34.3603 69.7384 34.6431 71.4436 34.3066C71.8544 34.2261 72.2446 34.1105 72.5935 33.8854C73.6339 33.2104 73.5968 32.0295 72.5047 31.4267C71.489 30.8652 70.3391 30.795 69.2305 30.5906C68.4811 30.4523 67.7503 30.2603 67.0835 29.9011C65.5847 29.0918 65.368 27.2648 66.6128 26.1026C67.323 25.4399 68.2086 25.1612 69.1355 25.0373C70.5765 24.8433 72.0175 24.9258 73.4254 25.3016C73.7248 25.3821 74.2388 25.3284 74.0365 25.9787C73.8569 26.5547 73.5617 26.5774 73.0621 26.4267C71.6954 26.0179 70.2999 25.894 68.8919 26.2099C68.5596 26.2842 68.19 26.3379 67.9258 26.5237C67.4634 26.8499 66.9596 27.1905 67.0505 27.9048C67.1372 28.5716 67.5583 28.9143 68.1364 29.1352C69.0096 29.4696 69.9386 29.5419 70.8449 29.7215C71.6872 29.8887 72.5233 30.0766 73.2809 30.508C74.8808 31.4184 75.0522 33.3404 73.6401 34.5275C72.7896 35.2397 71.5881 35.5556 69.7363 35.5494Z" fill="white"/>
<path d="M5.24985 33.3631C5.25192 31.534 5.25192 31.534 6.99842 30.9064C8.88944 30.2272 8.88944 30.2272 8.89563 32.1987C8.90182 34.0319 8.90182 34.0319 6.9592 34.7504C5.24572 35.3821 5.24572 35.3821 5.24779 33.5695C5.24985 33.5014 5.24985 33.4332 5.24985 33.3631Z" fill="white"/>
<path d="M21.4618 6.51935C21.3214 7.08294 20.8012 7.19236 20.3738 7.35132C19.1228 7.81375 17.8511 8.22663 16.5897 8.6581C14.5398 7.5206 12.2792 6.92398 10.0971 6.12092C8.87497 5.67088 7.63219 5.26418 6.43895 4.74601C5.36339 4.27945 4.678 1.79182 5.28494 0.823603C5.54505 0.406589 5.86298 0.610967 6.18709 0.730704C9.86177 2.07671 13.5364 3.42272 17.2132 4.76046C18.6562 5.28483 20.1653 5.64404 21.4618 6.51935Z" fill="#D20253"/>
<path d="M13.4497 9.75222C11.5711 10.5491 9.70694 11.3893 7.67141 11.7299C6.15613 10.5986 4.30433 10.2497 2.59086 9.60152C-0.0144455 8.61472 0.229157 8.33809 0.0660671 5.90826C0.012392 5.10933 0.421148 4.86985 1.1726 5.14442C2.93975 5.79059 4.71309 6.4223 6.48437 7.05608C8.48067 7.77037 10.4811 8.47434 12.4712 9.20308C12.818 9.33108 13.1256 9.56642 13.4497 9.75222Z" fill="#D20253"/>
<path d="M21.5898 12.7518C20.7949 13.7118 19.5728 13.8006 18.5241 14.232C17.8284 14.5169 17.1368 14.9567 16.3151 14.6883C15.6153 14.2031 14.6904 14.1288 14.0835 13.4723C15.8734 12.7807 17.6632 12.0892 19.451 11.3976C19.5707 11.9694 20.0662 12.0293 20.5018 12.1779C20.894 12.3121 21.3874 12.2564 21.5898 12.7518Z" fill="#D20253"/>
<path d="M4.98146 12.8324C3.42076 13.4269 1.9385 14.263 0.229153 14.4158C-0.235343 13.462 0.148641 12.4773 0.144512 11.5091C0.142447 11.249 0.427338 11.09 0.687456 11.1808C2.13668 11.6846 3.66023 11.9984 4.98146 12.8324Z" fill="#D20253"/>
</g>
<defs>
<clipPath id="clip0">
<rect width="113.682" height="34.9838" fill="white" transform="translate(0 0.573853)"/>
</clipPath>
</defs>
</svg>
