<svg width="32" height="21" viewBox="0 0 32 21" fill="none" xmlns="http://www.w3.org/2000/svg">
<path d="M30.4118 6.82326C29.0396 7.66839 27.6024 7.96591 26.1637 8.24556C24.3028 8.60623 22.4378 8.9392 20.5753 9.282C20.189 9.35262 19.8836 9.59244 19.6208 9.86893C18.2717 11.289 16.9476 12.7339 15.593 14.1465C14.7206 15.055 13.8111 15.9234 12.9171 16.8101C12.2279 17.4945 11.3551 17.5483 10.4934 17.6252C10.0781 17.6623 10.0246 17.5088 10.2727 17.1462C10.9871 16.1009 11.6781 15.039 12.3807 13.9868C12.9568 13.125 13.4798 12.2484 13.506 11.143C13.5162 10.7394 13.4549 10.5469 13.0136 10.6268C11.5595 10.8869 10.102 11.1329 8.6422 11.3569C6.93706 11.6191 5.23032 11.8838 3.51844 12.0881C2.68316 12.1888 2.42689 11.8791 2.74352 11.0864C3.05661 10.3014 2.89469 9.71156 2.48634 9.08783C2.07925 8.46426 1.79297 7.75545 1.28885 7.2011C1.07665 6.9677 1.2093 6.87989 1.42982 6.81544C2.71671 6.44182 3.95947 6.26506 5.01704 7.40854C5.59864 8.03792 6.27042 8.28879 7.16683 8.02874C8.97401 7.50638 10.8103 7.09775 12.6395 6.66378C12.9785 6.5831 12.9429 6.44 12.8772 6.1613C12.6647 5.25396 11.9763 4.7904 11.3493 4.28706C10.2962 3.44169 9.21071 2.63977 8.13782 1.81907C8.01185 1.72294 7.79801 1.67411 7.84972 1.45784C7.89746 1.26281 8.10999 1.28159 8.26007 1.21773C9.73948 0.596771 11.0198 1.24404 12.2918 1.87665C14.3509 2.89975 16.3962 3.951 18.4519 4.98046C19.116 5.31189 19.7438 4.89009 20.3686 4.75458C22.0191 4.39851 23.6516 3.94233 25.2975 3.56257C25.6494 3.4808 26.041 3.46928 26.3906 3.64808C27.4107 4.16862 28.549 4.07916 29.6246 4.31327C30.1449 4.42675 30.6582 4.55563 31.1336 4.81152C31.7204 5.1277 31.7719 5.51873 31.3001 6.04182C31.0102 6.36106 30.7117 6.66698 30.4118 6.82326Z" fill="white"/>
</svg>
