<svg width="22" height="19" viewBox="0 0 22 19" fill="none" xmlns="http://www.w3.org/2000/svg">
<path d="M18.7996 14.097C18.7996 15.1915 18.7804 16.2871 18.808 17.3804C18.8224 17.9493 18.5478 18.1429 18.0202 18.1417C16.2215 18.1382 14.4241 18.1452 12.6254 18.1382C12.0127 18.1358 11.7944 17.9258 11.7872 17.3299C11.7776 16.3727 11.7668 15.4144 11.792 14.4572C11.8028 14.0419 11.7057 13.8624 11.2332 13.873C10.2955 13.8929 10.2955 13.8659 10.2943 14.7844C10.2943 15.6056 10.2991 16.4267 10.2943 17.2478C10.2895 17.9341 10.0977 18.137 9.42017 18.1393C7.64189 18.1464 5.8636 18.1464 4.08532 18.1393C3.40662 18.137 3.28191 18.0103 3.28071 17.3522C3.27712 15.1633 3.27712 12.9733 3.28311 10.7844C3.28431 10.5439 3.23755 10.287 3.5685 10.1497C3.80473 10.0524 3.9774 10.0864 4.18604 10.1885C4.50261 10.3433 4.40428 10.6248 4.40548 10.8571C4.41627 12.6753 4.42946 14.4935 4.39949 16.3106C4.39109 16.8044 4.54218 16.9428 5.03861 16.9288C6.23653 16.8947 7.43684 16.9076 8.63475 16.9252C8.9753 16.9299 9.08082 16.8255 9.07483 16.4936C9.05564 15.4965 9.06403 14.4994 9.07003 13.5035C9.07363 12.9193 9.30146 12.6906 9.88543 12.687C10.6648 12.6812 11.4443 12.6894 12.2237 12.6847C12.7717 12.6812 13.0163 12.9498 13.0127 13.4753C13.0067 14.4724 13.0271 15.4695 13.0031 16.4654C12.9947 16.8279 13.1062 16.9334 13.4744 16.9276C14.6927 16.9065 15.9122 16.9041 17.1305 16.9276C17.5466 16.9358 17.6797 16.8138 17.6749 16.3997C17.6557 14.5228 17.6653 12.6471 17.6701 10.7703C17.6713 10.5239 17.6437 10.2753 17.9698 10.1427C18.2097 10.0453 18.3823 10.1005 18.5874 10.1967C18.856 10.3222 18.79 10.5591 18.7924 10.7574C18.8056 11.8682 18.7996 12.9826 18.7996 14.097Z" fill="white"/>
<path d="M18.7996 14.097C18.7996 15.1915 18.7804 16.2871 18.808 17.3804C18.8224 17.9493 18.5478 18.1429 18.0202 18.1417C16.2215 18.1382 14.4241 18.1452 12.6254 18.1382C12.0127 18.1358 11.7944 17.9258 11.7872 17.3299C11.7776 16.3727 11.7668 15.4144 11.792 14.4572C11.8028 14.0419 11.7057 13.8624 11.2332 13.873C10.2955 13.8929 10.2955 13.8659 10.2943 14.7844C10.2943 15.6056 10.2991 16.4267 10.2943 17.2478C10.2895 17.9341 10.0977 18.137 9.42017 18.1393C7.64189 18.1464 5.8636 18.1464 4.08532 18.1393C3.40662 18.137 3.28191 18.0103 3.28071 17.3522C3.27712 15.1633 3.27712 12.9733 3.28311 10.7844C3.28431 10.5439 3.23755 10.287 3.5685 10.1497C3.80473 10.0524 3.9774 10.0864 4.18604 10.1885C4.50261 10.3433 4.40428 10.6248 4.40548 10.8571C4.41627 12.6753 4.42946 14.4935 4.39949 16.3106C4.39109 16.8044 4.54218 16.9428 5.03861 16.9288C6.23653 16.8947 7.43684 16.9076 8.63475 16.9252C8.9753 16.9299 9.08082 16.8255 9.07483 16.4936C9.05564 15.4965 9.06403 14.4994 9.07003 13.5035C9.07363 12.9193 9.30146 12.6906 9.88543 12.687C10.6648 12.6812 11.4443 12.6894 12.2237 12.6847C12.7717 12.6812 13.0163 12.9498 13.0127 13.4753C13.0067 14.4724 13.0271 15.4695 13.0031 16.4654C12.9947 16.8279 13.1062 16.9334 13.4744 16.9276C14.6927 16.9065 15.9122 16.9041 17.1305 16.9276C17.5466 16.9358 17.6797 16.8138 17.6749 16.3997C17.6557 14.5228 17.6653 12.6471 17.6701 10.7703C17.6713 10.5239 17.6437 10.2753 17.9698 10.1427C18.2097 10.0453 18.3823 10.1005 18.5874 10.1967C18.856 10.3222 18.79 10.5591 18.7924 10.7574C18.8056 11.8682 18.7996 12.9826 18.7996 14.097Z" stroke="white" stroke-width="0.75"/>
<path d="M18.7996 14.097C18.7996 15.1915 18.7804 16.2871 18.808 17.3804C18.8224 17.9493 18.5478 18.1429 18.0202 18.1417C16.2215 18.1382 14.4241 18.1452 12.6254 18.1382C12.0127 18.1358 11.7944 17.9258 11.7872 17.3299C11.7776 16.3727 11.7668 15.4144 11.792 14.4572C11.8028 14.0419 11.7057 13.8624 11.2332 13.873C10.2955 13.8929 10.2955 13.8659 10.2943 14.7844C10.2943 15.6056 10.2991 16.4267 10.2943 17.2478C10.2895 17.9341 10.0977 18.137 9.42017 18.1393C7.64189 18.1464 5.8636 18.1464 4.08532 18.1393C3.40662 18.137 3.28191 18.0103 3.28071 17.3522C3.27712 15.1633 3.27712 12.9733 3.28311 10.7844C3.28431 10.5439 3.23755 10.287 3.5685 10.1497C3.80473 10.0524 3.9774 10.0864 4.18604 10.1885C4.50261 10.3433 4.40428 10.6248 4.40548 10.8571C4.41627 12.6753 4.42946 14.4935 4.39949 16.3106C4.39109 16.8044 4.54218 16.9428 5.03861 16.9288C6.23653 16.8947 7.43684 16.9076 8.63475 16.9252C8.9753 16.9299 9.08082 16.8255 9.07483 16.4936C9.05564 15.4965 9.06403 14.4994 9.07003 13.5035C9.07363 12.9193 9.30146 12.6906 9.88543 12.687C10.6648 12.6812 11.4443 12.6894 12.2237 12.6847C12.7717 12.6812 13.0163 12.9498 13.0127 13.4753C13.0067 14.4724 13.0271 15.4695 13.0031 16.4654C12.9947 16.8279 13.1062 16.9334 13.4744 16.9276C14.6927 16.9065 15.9122 16.9041 17.1305 16.9276C17.5466 16.9358 17.6797 16.8138 17.6749 16.3997C17.6557 14.5228 17.6653 12.6471 17.6701 10.7703C17.6713 10.5239 17.6437 10.2753 17.9698 10.1427C18.2097 10.0453 18.3823 10.1005 18.5874 10.1967C18.856 10.3222 18.79 10.5591 18.7924 10.7574C18.8056 11.8682 18.7996 12.9826 18.7996 14.097Z" stroke="url(#paint0_linear)" stroke-width="0.75"/>
<path d="M11.0663 1C11.257 1.03754 11.4405 1.06217 11.6071 1.20294C14.4598 3.61941 17.3173 6.02884 20.1772 8.43592C20.4674 8.68109 20.6892 8.9767 20.8619 9.29928C20.9518 9.46703 21.1065 9.69225 20.8931 9.8905C20.664 10.1052 20.4782 9.94446 20.2551 9.83302C18.9673 9.19254 18.0164 8.14032 16.936 7.25115C15.1373 5.76959 13.3554 4.2681 11.5879 2.75135C11.215 2.43111 10.9716 2.41469 10.5879 2.73962C7.83592 5.0646 5.06477 7.36611 2.30202 9.67583C2.25765 9.71337 2.22887 9.77319 2.17971 9.80369C1.83916 10.0172 1.48182 10.2682 1.14008 9.82833C0.836702 9.43653 1.07533 9.13506 1.3775 8.87699C1.9147 8.41715 2.4567 7.96553 2.9999 7.51274C5.51084 5.42003 8.02418 3.33201 10.5291 1.23226C10.6946 1.09267 10.8697 1.04458 11.0663 1Z" fill="white"/>
<path d="M11.0663 1C11.257 1.03754 11.4405 1.06217 11.6071 1.20294C14.4598 3.61941 17.3173 6.02884 20.1772 8.43592C20.4674 8.68109 20.6892 8.9767 20.8619 9.29928C20.9518 9.46703 21.1065 9.69225 20.8931 9.8905C20.664 10.1052 20.4782 9.94446 20.2551 9.83302C18.9673 9.19254 18.0164 8.14032 16.936 7.25115C15.1373 5.76959 13.3554 4.2681 11.5879 2.75135C11.215 2.43111 10.9716 2.41469 10.5879 2.73962C7.83592 5.0646 5.06477 7.36611 2.30202 9.67583C2.25765 9.71337 2.22887 9.77319 2.17971 9.80369C1.83916 10.0172 1.48182 10.2682 1.14008 9.82833C0.836702 9.43653 1.07533 9.13506 1.3775 8.87699C1.9147 8.41715 2.4567 7.96553 2.9999 7.51274C5.51084 5.42003 8.02418 3.33201 10.5291 1.23226C10.6946 1.09267 10.8697 1.04458 11.0663 1Z" stroke="white" stroke-width="0.75"/>
<path d="M11.0663 1C11.257 1.03754 11.4405 1.06217 11.6071 1.20294C14.4598 3.61941 17.3173 6.02884 20.1772 8.43592C20.4674 8.68109 20.6892 8.9767 20.8619 9.29928C20.9518 9.46703 21.1065 9.69225 20.8931 9.8905C20.664 10.1052 20.4782 9.94446 20.2551 9.83302C18.9673 9.19254 18.0164 8.14032 16.936 7.25115C15.1373 5.76959 13.3554 4.2681 11.5879 2.75135C11.215 2.43111 10.9716 2.41469 10.5879 2.73962C7.83592 5.0646 5.06477 7.36611 2.30202 9.67583C2.25765 9.71337 2.22887 9.77319 2.17971 9.80369C1.83916 10.0172 1.48182 10.2682 1.14008 9.82833C0.836702 9.43653 1.07533 9.13506 1.3775 8.87699C1.9147 8.41715 2.4567 7.96553 2.9999 7.51274C5.51084 5.42003 8.02418 3.33201 10.5291 1.23226C10.6946 1.09267 10.8697 1.04458 11.0663 1Z" stroke="url(#paint1_linear)" stroke-width="0.75"/>
<path d="M18.8165 4.16485C18.8165 4.43817 18.8141 4.71032 18.8165 4.98364C18.8201 5.33086 18.5791 5.47045 18.2913 5.5033C17.9783 5.53966 17.6785 5.37661 17.7121 5.06223C17.8116 4.10855 17.4495 3.72731 16.4566 3.86221C16.17 3.90092 15.9614 3.59241 15.9746 3.30149C15.9866 3.04812 16.1353 2.80178 16.4494 2.79357C17.0862 2.77714 17.7229 2.76893 18.3584 2.78653C18.6558 2.79474 18.8237 2.98008 18.8189 3.28859C18.8153 3.58068 18.8177 3.87394 18.8177 4.16603C18.8177 4.16485 18.8177 4.16485 18.8165 4.16485Z" fill="white"/>
<path d="M18.8165 4.16485C18.8165 4.43817 18.8141 4.71032 18.8165 4.98364C18.8201 5.33086 18.5791 5.47045 18.2913 5.5033C17.9783 5.53966 17.6785 5.37661 17.7121 5.06223C17.8116 4.10855 17.4495 3.72731 16.4566 3.86221C16.17 3.90092 15.9614 3.59241 15.9746 3.30149C15.9866 3.04812 16.1353 2.80178 16.4494 2.79357C17.0862 2.77714 17.7229 2.76893 18.3584 2.78653C18.6558 2.79474 18.8237 2.98008 18.8189 3.28859C18.8153 3.58068 18.8177 3.87394 18.8177 4.16603C18.8177 4.16485 18.8177 4.16485 18.8165 4.16485Z" stroke="white" stroke-width="0.75"/>
<path d="M18.8165 4.16485C18.8165 4.43817 18.8141 4.71032 18.8165 4.98364C18.8201 5.33086 18.5791 5.47045 18.2913 5.5033C17.9783 5.53966 17.6785 5.37661 17.7121 5.06223C17.8116 4.10855 17.4495 3.72731 16.4566 3.86221C16.17 3.90092 15.9614 3.59241 15.9746 3.30149C15.9866 3.04812 16.1353 2.80178 16.4494 2.79357C17.0862 2.77714 17.7229 2.76893 18.3584 2.78653C18.6558 2.79474 18.8237 2.98008 18.8189 3.28859C18.8153 3.58068 18.8177 3.87394 18.8177 4.16603C18.8177 4.16485 18.8177 4.16485 18.8165 4.16485Z" stroke="url(#paint2_linear)" stroke-width="0.75"/>
<defs>
<linearGradient id="paint0_linear" x1="11.0434" y1="10.0916" x2="11.0434" y2="18.1446" gradientUnits="userSpaceOnUse">
<stop stop-color="white"/>
<stop offset="1" stop-color="white" stop-opacity="0"/>
</linearGradient>
<linearGradient id="paint1_linear" x1="11.0002" y1="1" x2="11.0002" y2="10.0712" gradientUnits="userSpaceOnUse">
<stop stop-color="white"/>
<stop offset="1" stop-color="white" stop-opacity="0"/>
</linearGradient>
<linearGradient id="paint2_linear" x1="17.3965" y1="2.77667" x2="17.3965" y2="5.50831" gradientUnits="userSpaceOnUse">
<stop stop-color="white"/>
<stop offset="1" stop-color="white" stop-opacity="0"/>
</linearGradient>
</defs>
</svg>
